<?xml version="1.0" standalone="no"?>
<!DOCTYPE svg PUBLIC "-//W3C//DTD SVG 20010904//EN"
 "http://www.w3.org/TR/2001/REC-SVG-20010904/DTD/svg10.dtd">
<svg version="1.0" xmlns="http://www.w3.org/2000/svg"
 width="16.000000pt" height="16.000000pt" viewBox="0 0 16.000000 16.000000"
 preserveAspectRatio="xMidYMid meet">
<metadata>
Created by potrace 1.11, written by Peter Selinger 2001-2013
</metadata>
<g transform="translate(0.000000,16.000000) scale(0.006250,-0.006250)"
fill="#000000" stroke="none">
<path d="M1222 2476 c-60 -21 -97 -60 -144 -158 -82 -169 -195 -402 -228 -470
-20 -43 -38 -68 -48 -69 -9 0 -25 -2 -34 -4 -26 -5 -100 -16 -128 -19 -14 -2
-38 -6 -55 -9 -16 -3 -52 -9 -80 -13 -27 -3 -61 -8 -75 -10 -14 -2 -43 -6 -65
-9 -22 -3 -51 -7 -65 -10 -14 -3 -45 -8 -70 -10 -117 -14 -196 -58 -221 -122
-12 -33 -11 -115 2 -150 5 -15 125 -143 266 -284 l255 -257 -5 -43 c-4 -24 -9
-55 -11 -69 -3 -13 -9 -42 -12 -65 -4 -22 -8 -49 -10 -60 -2 -11 -6 -36 -9
-55 -3 -19 -8 -48 -11 -65 -3 -16 -7 -41 -9 -55 -7 -46 -15 -95 -21 -122 -13
-66 -17 -98 -18 -165 -1 -65 2 -74 29 -109 43 -52 88 -74 156 -74 59 0 73 6
264 110 33 17 98 53 145 78 47 25 105 56 130 70 25 14 64 35 88 48 l43 23 37
-21 c20 -11 69 -37 107 -58 39 -20 95 -51 125 -67 365 -198 336 -185 412 -181
57 3 73 8 104 34 60 48 72 79 68 165 -2 41 -6 85 -9 99 -7 26 -14 67 -19 110
-2 14 -6 39 -9 55 -8 35 -14 71 -23 134 -4 25 -9 55 -11 66 -3 11 -6 31 -8 45
-1 14 -3 25 -5 25 -1 0 -3 14 -6 30 -2 17 -6 50 -9 74 l-6 44 255 256 c140
141 260 269 265 284 6 16 11 53 11 82 0 111 -72 170 -230 189 -19 3 -51 7 -70
11 -19 3 -51 8 -70 11 -62 8 -94 12 -125 17 -49 9 -118 19 -145 23 -37 5 -112
15 -135 19 -11 1 -25 3 -32 4 -7 0 -26 31 -44 69 -17 37 -69 144 -114 237 -46
94 -99 204 -119 247 -60 127 -151 179 -254 144z m122 -326 c1 -3 30 -64 65
-135 35 -72 85 -174 112 -227 26 -54 44 -100 40 -102 -3 -3 -29 -2 -56 1 -75
7 -405 9 -405 2 0 -4 -15 -5 -32 -4 -18 2 -38 -1 -43 -5 -6 -5 -16 -5 -23 -1
-9 5 -4 23 18 67 44 90 191 399 191 401 -1 3 51 103 63 121 6 10 17 -5 39 -50
17 -35 31 -65 31 -68z m-568 -641 c-13 -35 -30 -77 -37 -94 -7 -16 -13 -32
-14 -35 -1 -3 -7 -24 -13 -47 -14 -48 -24 -56 -67 -58 -16 -1 -38 -6 -49 -10
-22 -10 -56 -82 -49 -104 3 -9 -61 49 -143 129 -171 166 -208 207 -191 207 13
0 81 11 132 19 17 3 44 7 60 10 17 2 48 6 70 9 22 4 52 8 68 11 15 2 42 7 60
10 17 3 46 7 62 9 51 4 120 16 125 21 14 15 8 -21 -14 -77z m754 66 c79 -16
140 -35 139 -43 -1 -4 0 -10 1 -14 1 -5 3 -11 4 -15 1 -5 10 -26 20 -48 9 -21
18 -46 20 -55 2 -8 6 -22 9 -30 31 -73 36 -100 21 -115 -9 -8 -27 -15 -42 -16
-15 0 -36 -2 -47 -5 -42 -8 -112 -16 -174 -21 -105 -7 -341 -9 -341 -3 0 3
-21 6 -47 6 -51 0 -151 10 -193 19 -14 3 -40 8 -58 11 -28 6 -32 10 -28 33 2
14 5 26 6 26 1 0 3 10 6 23 2 12 15 50 29 84 14 34 25 67 25 73 0 6 12 25 28
42 26 29 42 35 137 49 22 3 41 7 42 8 6 5 413 -3 443 -9z m293 -1 c30 -5 63
-9 132 -18 17 -2 30 -5 30 -6 0 -1 11 -3 25 -5 14 -1 45 -5 70 -9 25 -4 59 -9
75 -11 37 -5 89 -13 135 -21 19 -3 44 -6 54 -6 14 1 -13 -32 -85 -104 -214
-217 -242 -240 -245 -206 -1 6 -2 14 -3 17 0 3 -1 8 0 11 1 3 -11 18 -26 34
-20 21 -34 27 -62 25 -41 -2 -60 14 -69 60 -3 19 -10 35 -15 35 -5 0 -8 3 -7
8 3 8 -20 72 -57 155 -16 37 -13 63 6 51 5 -3 24 -8 42 -10z m-1195 -443 c9
-1 10 -6 4 -18 -5 -10 -7 -25 -4 -33 2 -8 -9 -2 -27 14 -37 35 -39 47 -8 42
12 -3 28 -5 35 -5z m1362 0 c0 -4 -11 -18 -24 -30 l-23 -22 -6 23 c-4 12 -2
25 3 28 14 9 50 10 50 1z m-1210 -66 c0 3 16 -1 35 -9 20 -9 39 -16 43 -17 4
-1 17 -5 30 -10 13 -5 28 -9 33 -9 5 0 9 -4 9 -8 0 -4 13 -13 30 -19 23 -9 28
-16 25 -34 -3 -12 -9 -25 -14 -28 -8 -5 -209 -7 -233 -2 -3 0 -15 17 -27 36
-36 61 -1 131 52 103 9 -5 17 -6 17 -3z m1060 -1 c0 18 30 -17 30 -36 0 -26
-38 -98 -53 -99 -53 -6 -205 -4 -219 3 -29 14 -21 45 17 68 19 12 41 23 48 24
6 1 21 7 32 13 22 11 71 26 98 28 10 1 21 5 24 9 4 3 10 1 15 -6 4 -7 8 -9 8
-4z m-192 -407 c4 -81 22 -93 141 -92 50 1 91 -1 92 -4 0 -3 2 -15 4 -26 3
-11 7 -36 9 -55 3 -19 5 -35 6 -35 1 0 3 -14 5 -30 2 -17 6 -46 10 -65 3 -19
8 -46 10 -60 1 -14 4 -25 5 -25 1 0 3 -17 5 -38 2 -27 0 -35 -8 -29 -13 10
-88 51 -202 112 -38 20 -110 58 -160 85 -275 147 -282 148 -403 89 -42 -21
-80 -43 -84 -49 -4 -5 -8 -6 -8 -2 0 5 -12 0 -27 -11 -16 -11 -53 -31 -83 -46
-30 -15 -91 -47 -135 -72 -44 -24 -98 -53 -120 -64 -22 -11 -50 -27 -63 -36
l-23 -17 7 49 c3 27 8 58 11 69 3 11 6 34 8 50 2 17 4 30 5 30 1 0 3 11 5 25
2 14 6 41 9 60 4 19 8 44 9 55 5 38 14 41 102 40 119 -1 140 12 140 86 -1 44
3 55 18 59 10 3 174 5 365 4 l347 0 3 -57z"/>
</g>
</svg>
